{"title":"Yaariyan(2014)DVDScr-XviD-1CD{VikkyMaxx}","uid":9476958,"size":738592113,"categoryP":"video","categoryS":"movies","magnet":"?xt=urn:btih:6a3c79c9773cff3b3b8a190ca4b04c5df0f3f3bb&amp;dn=Yaariyan%282014%29DVDScr-XviD-1CD%7BVikkyMaxx%7D&amp;tr=udp%3A%2F%2Ftracker.openbittorrent.com%3A80&amp;tr=udp%3A%2F%2Fopen.demonii.com%3A1337&amp;tr=udp%3A%2F%2Ftracker.coppersurfer.tk%3A6969&amp;tr=udp%3A%2F%2Fexodus.desync.com%3A6969","seeders":1,"leechers":0,"uploader":"shailendramaxx","files":25,"time":1389719995,"description":"\n\nGeneral:-\n\nComplete name                            : Yaariyan(2014)DVDScr-XviD-1CD{VikkyMaxx}\nFormat                                   : AVI\nFormat/Info                              : Audio Video Interleave\nFile size                                : 696 MiB\nDuration                                 : 2h 19mn\nOverall bit rate                         : 697 Kbps\n\n               A BIG THANKS TO - Team ICTV\n\nVideo:-\n\nID                                       : 0\nFormat                                   : MPEG-4 Visual\nFormat profile                           : Advanced Simple@L5\nFormat settings, BVOP                    : 2\nFormat settings, QPel                    : No\nFormat settings, GMC                     : No warppoints\nFormat settings, Matrix                  : Default (H.263)\nCodec ID                                 : XVID\nCodec ID/Hint                            : XviD\nDuration                                 : 2h 19mn\nBit rate                                 : 611 Kbps\nWidth                                    : 640 pixels\nHeight                                   : 272 pixels\nDisplay aspect ratio                     : 2.35:1\nFrame rate                               : 23.976 fps\nColor space                              : YUV\nChroma subsampling                       : 4:2:0\nBit depth                                : 8 bits\nScan type                                : Progressive\nCompression mode                         : Lossy\nBits/(Pixel*Frame)                       : 0.146\nStream size                              : 611 MiB (88%)\nWriting library                          : XviD 1.2.1 (UTC 2008-12-04)\n\nAudio:-\n\nID                                       : 1\nFormat                                   : MPEG Audio\nFormat version                           : Version 1\nFormat profile                           : Layer 3\nMode                                     : Joint stereo\nMode extension                           : MS Stereo\nCodec ID                                 : 55\nCodec ID/Hint                            : MP3\nDuration                                 : 2h 19mn\nBit rate mode                            : Constant\nBit rate                                 : 80.0 Kbps\nChannel(s)                               : 2 channels\nSampling rate                            : 32.0 KHz\nCompression mode                         : Lossy\nStream size                              : 80.0 MiB (11%)\nAlignment                                : Aligned on interleaves\nInterleave, duration                     : 167 ms (4.00 video frames)\nInterleave, preload duration             : 216 ms\nTitle                                    : joined T80 3_2ch 448Kbps DELAY 0ms_new\nWriting library                          : LAME3.99r\nEncoding settings                        : -m j -V 4 -q 2 -lowpass 13.5 -b 80\n\nLANGUAGE -HINDI\n\n\nSCREENS:-\n\n[URL=http://imgur.com/8sCKfEs][IMG]http://i.imgur.com/8sCKfEs.jpg[/IMG][/URL]\n\n[URL=http://imgur.com/vpiv0no][IMG]http://i.imgur.com/vpiv0no.jpg[/IMG][/URL]\n\n[URL=http://imgur.com/yl5qSnh][IMG]http://i.imgur.com/yl5qSnh.jpg[/IMG][/URL]\n\n[URL=http://imgur.com/t1E3OO7][IMG]http://i.imgur.com/t1E3OO7.jpg[/IMG][/URL]\n\n[URL=http://imgur.com/NGPzyVZ][IMG]http://i.imgur.com/NGPzyVZ.jpg[/IMG][/URL]\n\n[URL=http://imgur.com/7CVZQc2][IMG]http://i.imgur.com/7CVZQc2.jpg[/IMG][/URL]\n\n[URL=http://imgur.com/PttpWwe][IMG]http://i.imgur.com/PttpWwe.jpg[/IMG][/URL]\n\n[URL=http://imgur.com/Dz8MxO8][IMG]http://i.imgur.com/Dz8MxO8.jpg[/IMG][/URL]\n\n[URL=http://imgur.com/vZoNEjj][IMG]http://i.imgur.com/vZoNEjj.jpg[/IMG][/URL]\n\n[URL=http://imgur.com/Qf2mxcX][IMG]http://i.imgur.com/Qf2mxcX.jpg[/IMG][/URL]\n\n  \nSAMPLE AND SCREENSHOTS INCLUDED\n\n\n \n            ********** PLEASE SEED AS LONG AS YOU CAN AFTER DOWNLOAD **********\n       \n                     ***** THANK YOU REGARDS - VIKKYMAXX *****\t","torrent":{"xt":"urn:btih:6a3c79c9773cff3b3b8a190ca4b04c5df0f3f3bb","amp;dn":"Yaariyan%282014%29DVDScr-XviD-1CD%7BVikkyMaxx%7D","amp;tr":["udp%3A%2F%2Ftracker.openbittorrent.com%3A80","udp%3A%2F%2Fopen.demonii.com%3A1337","udp%3A%2F%2Ftracker.coppersurfer.tk%3A6969","udp%3A%2F%2Fexodus.desync.com%3A6969"],"infoHash":"6a3c79c9773cff3b3b8a190ca4b04c5df0f3f3bb","infoHashBuffer":{"type":"Buffer","data":[106,60,121,201,119,60,255,59,59,138,25,12,164,176,76,93,240,243,243,187]},"announce":[],"urlList":[]}}